<?xml version="1.0" standalone="no"?>
<!DOCTYPE svg PUBLIC "-//W3C//DTD SVG 20010904//EN"
 "http://www.w3.org/TR/2001/REC-SVG-20010904/DTD/svg10.dtd">
<svg version="1.0" xmlns="http://www.w3.org/2000/svg"
 width="208.000000pt" height="279.000000pt" viewBox="0 0 208.000000 279.000000"
 preserveAspectRatio="xMidYMid meet">

<g transform="translate(0.000000,279.000000) scale(0.100000,-0.100000)"
fill="#000000" stroke="none">
<path d="M380 2675 l0 -115 115 0 115 0 0 115 0 115 -115 0 -115 0 0 -115z"/>
<path d="M875 2650 c-22 -4 -61 -11 -87 -14 -58 -9 -57 8 -18 -249 32 -210 36
-277 20 -308 -12 -22 -67 -52 -122 -67 l-38 -10 0 56 c0 31 -3 100 -6 153 l-7
95 -86 -3 c-47 -2 -100 -6 -118 -9 l-32 -5 6 -154 c7 -172 7 -170 -56 -134
-79 44 -111 143 -91 281 6 44 18 100 26 126 7 26 14 52 14 58 0 10 -191 94
-212 94 -10 0 -46 -123 -58 -200 -24 -159 -3 -332 56 -440 54 -99 162 -178
276 -202 69 -14 65 -5 72 -173 6 -162 31 -241 94 -304 57 -57 130 -81 244 -81
90 0 158 19 207 58 20 15 41 31 48 35 6 4 62 -18 124 -48 135 -66 177 -71 260
-27 67 34 106 90 146 204 23 69 28 100 28 179 0 86 -3 101 -30 154 -74 145
-252 202 -402 129 -71 -34 -99 -69 -183 -230 -40 -77 -80 -147 -88 -157 -38
-43 -185 -46 -201 -3 -5 11 -10 79 -12 149 l-4 129 80 27 c108 37 159 65 215
117 107 100 118 191 66 534 -20 129 -36 238 -36 242 0 10 -40 9 -95 -2z m454
-1046 c26 -22 31 -33 31 -70 0 -46 -26 -124 -41 -124 -13 0 -169 79 -169 85 0
3 11 28 25 55 40 79 100 100 154 54z"/>
<path d="M1580 1365 l0 -105 215 0 216 0 -3 103 -3 102 -212 3 -213 2 0 -105z"/>
<path d="M943 1136 c-92 -30 -167 -98 -211 -195 -24 -50 -27 -68 -27 -171 0
-103 3 -121 26 -171 31 -66 84 -120 148 -151 39 -19 66 -23 174 -26 136 -4
147 -10 105 -49 -32 -30 -85 -49 -232 -82 -70 -17 -130 -31 -132 -33 -2 -2 7
-60 20 -128 26 -145 8 -134 168 -94 120 30 230 69 285 101 91 53 153 154 153
249 l0 33 208 3 c199 3 209 4 262 29 119 56 179 144 188 272 4 62 -2 95 -38
232 -23 88 -43 161 -44 162 -4 4 -210 -58 -218 -65 -4 -4 9 -65 28 -137 40
-152 42 -185 13 -211 -19 -17 -41 -19 -219 -23 l-198 -3 -7 48 c-11 84 -34
167 -62 224 -34 69 -109 145 -170 172 -59 26 -163 33 -220 14z m149 -267 c25
-13 54 -78 63 -143 l7 -48 -95 4 c-55 2 -101 9 -110 16 -37 31 -24 136 20 170
21 15 87 16 115 1z"/>
</g>
</svg>
