<?xml version="1.0" standalone="no"?>
<!DOCTYPE svg PUBLIC "-//W3C//DTD SVG 20010904//EN"
 "http://www.w3.org/TR/2001/REC-SVG-20010904/DTD/svg10.dtd">
<svg version="1.0" xmlns="http://www.w3.org/2000/svg"
 width="247.000000pt" height="184.000000pt" viewBox="0 0 247.000000 184.000000"
 preserveAspectRatio="xMidYMid meet">

<g transform="translate(0.000000,184.000000) scale(0.100000,-0.100000)"
fill="#000000" stroke="none">
<path d="M380 1735 l0 -95 100 0 100 0 0 95 0 95 -100 0 -100 0 0 -95z"/>
<path d="M808 1718 c-52 -9 -58 -13 -58 -34 0 -13 14 -114 30 -224 39 -260 39
-289 0 -334 -46 -52 -224 -106 -349 -106 -115 0 -174 34 -217 125 -20 42 -24
66 -24 146 0 86 6 121 42 257 2 8 -27 26 -79 47 l-83 33 -20 -64 c-32 -106
-43 -189 -38 -308 6 -126 25 -189 88 -283 l38 -58 6 -215 c15 -456 29 -541
101 -616 51 -53 101 -68 225 -69 107 0 157 17 222 74 l37 32 113 -57 c97 -50
121 -58 170 -58 47 -1 64 4 100 30 57 40 83 81 114 178 47 149 34 269 -39 353
-83 93 -217 121 -325 67 -68 -34 -90 -62 -167 -214 -36 -70 -75 -140 -87 -155
-38 -48 -117 -67 -208 -49 -51 11 -58 41 -70 305 -5 129 -10 250 -10 269 l0
35 95 -3 c77 -3 113 1 195 22 257 66 366 162 377 334 4 57 -36 388 -63 525 -6
30 -16 32 -116 15z m230 -1258 c43 -27 66 -81 58 -138 -7 -53 -41 -132 -56
-132 -19 0 -210 100 -210 110 0 19 57 125 77 142 20 19 60 36 83 37 8 1 30 -8
48 -19z"/>
<path d="M1952 1323 l3 -88 85 0 85 0 3 88 3 87 -91 0 -91 0 3 -87z"/>
<path d="M2272 1323 l3 -88 85 0 85 0 3 88 3 87 -91 0 -91 0 3 -87z"/>
<path d="M1377 1076 c-121 -44 -207 -180 -207 -330 0 -98 21 -163 71 -220 70
-79 101 -90 267 -94 l142 -4 0 -38 c0 -73 -59 -106 -280 -156 -69 -15 -126
-28 -128 -30 -3 -2 29 -187 34 -193 6 -7 261 62 336 91 87 33 165 96 194 155
9 21 20 67 23 103 l6 65 205 5 c188 5 209 7 257 29 59 26 126 93 151 149 28
66 21 169 -22 330 -27 99 -43 142 -53 142 -23 0 -153 -41 -153 -48 0 -4 16
-75 37 -158 33 -137 35 -154 23 -184 -22 -53 -53 -60 -273 -60 l-194 0 -7 68
c-19 187 -95 316 -216 371 -53 24 -155 27 -213 7z m184 -212 c32 -28 56 -91
64 -166 l7 -68 -112 0 c-110 0 -112 0 -141 29 -51 52 -37 160 28 211 23 18 38
21 80 18 33 -3 61 -12 74 -24z"/>
</g>
</svg>
